<?xml version="1.0" encoding="UTF-8" standalone="no"?>
<svg
   xmlns:dc="http://purl.org/dc/elements/1.1/"
   xmlns:cc="http://creativecommons.org/ns#"
   xmlns:rdf="http://www.w3.org/1999/02/22-rdf-syntax-ns#"
   xmlns:svg="http://www.w3.org/2000/svg"
   xmlns="http://www.w3.org/2000/svg"
   xmlns:sodipodi="http://sodipodi.sourceforge.net/DTD/sodipodi-0.dtd"
   xmlns:inkscape="http://www.inkscape.org/namespaces/inkscape"
   inkscape:version="1.0 (4035a4fb49, 2020-05-01)"
   sodipodi:docname="vanderbilt.svg"
   id="svg106"
   version="1.1"
   viewBox="0 0 531.1 47.1">
  <metadata
     id="metadata112">
    <rdf:RDF>
      <cc:Work
         rdf:about="">
        <dc:format>image/svg+xml</dc:format>
        <dc:type
           rdf:resource="http://purl.org/dc/dcmitype/StillImage" />
      </cc:Work>
    </rdf:RDF>
  </metadata>
  <defs
     id="defs110" />
  <sodipodi:namedview
     inkscape:current-layer="svg106"
     inkscape:window-maximized="0"
     inkscape:window-y="0"
     inkscape:window-x="0"
     inkscape:cy="23.55"
     inkscape:cx="319.49166"
     inkscape:zoom="2.7659574"
     showgrid="false"
     id="namedview108"
     inkscape:window-height="889"
     inkscape:window-width="1474"
     inkscape:pageshadow="2"
     inkscape:pageopacity="0"
     guidetolerance="10"
     gridtolerance="10"
     objecttolerance="10"
     borderopacity="1"
     bordercolor="#666666"
     pagecolor="#ffffff" />
  <style
     id="style62"
     type="text/css">  
	.st0{fill:#DCB163;}
	.st1{fill:#FFFFFF;}
</style>
  <path
     id="path64"
     d="M270.9 0c0 0.1 0 2.6 0 2.8 0.1 0 0.8 0 0.8 0h0.2c1.2 0 3 0 3.7 0.7 1.1 1.2 0.2 2.3-1 3.7 -0.3 0.4-0.6 0.8-1 1.2 -1.5 1.9-1.5 3.5-0.9 4 0.3 0.3 0.9 0.3 1.4 0 0 0 0.3-0.2 0.3-0.2 1-0.8 2.8-2.1 3.7-2.5 0.8-0.4 1.6-0.3 2.1 0.3 0.7 0.8 0.7 2.6-0.7 4.4 -0.4 0.5-0.9 1.1-1.4 1.7 -0.7 0.8-1.5 1.6-2.1 2.5 -0.7 1-0.8 2.2-0.3 2.7 0.4 0.4 1.1 0.2 1.9-0.5 1.1-0.8 2.1-0.9 2.6-0.3 0.2 0.3 0.4 0.7 0.4 1.1 0 1.1-0.7 2.6-1.9 3.8 -2.2 2.3-3.9 4.3-3.9 6.3 0 0.4 0.1 0.8 0.2 1.2 0.3 0.8 0.9 2.7 1 3.1 0 0.1 0.1 0.2 0.1 0.2l-0.1 0.2c0 0-0.1 0-0.3 0l0 0 -2.1 0 -2-5.5c-0.3-0.7-0.6-1.3-2.5-1.8 0 0-0.9-0.3-0.9-0.3l-0.1 0c-0.3-0.1-0.4 0-0.6 0.1 -1.1 0.8-1.2 0.9-1.2 0.9 0 0 0 0 0 0 -1.2 0.9-1.8 1.1-2.3 1 -0.5-0.1-0.7-0.5-0.7-1v0 -0.2l0 0c0 0 0 0 0 0l0 0 0 0 0 0c0.5-0.9 1-1.8 1.3-2.8 0.3-1 0.5-2 0.5-3.1v0l0 0 0 0 0 0c0 0 0 0 0 0 0 0 0-0.1 0.1-0.1l0 0c0.3-0.5 0.7-0.6 1.2-0.5 0.5 0.2 0.9 0.7 1.4 2.1l0.4 1c0.1 0.2 0.1 0.4 0.1 0.4 0.1 0.3 0.2 0.4 0.5 0.5 0 0 0.8 0.2 1.2 0.4l0 0c0.1 0 0.2 0.1 0.2 0.1 0 0 0.1-0.1 0.1-0.1s-0.1-0.1-0.1-0.2l0 0c-0.2-0.4-0.4-1.1-0.4-1.1l-0.7-1.9c-0.8-2.1-1.3-2.9-2.8-4 -0.9-0.6-2.1-1.2-3.1-1.7 -0.7-0.3-1.3-0.6-1.8-0.9 -1.8-1-2.9-2.4-2.9-3.8 0-0.2 0-0.4 0.1-0.6 0.2-0.8 1-1.3 1.9-1.3 0.8 0 2.6 0.6 4.2 1.3 0.7 0.3 1.2 0.2 1.4-0.2 0.4-0.8-0.3-2.4-2.2-3.8 -2.7-2-4-3.4-4.1-4.5 -0.1-0.5 0.1-0.9 0.4-1.3 0.5-0.7 2-0.7 3.3-0.7 0 0 0.9 0 1 0 0-0.1 0-2.7 0-2.8 -0.1 0-25.1 0-25.3 0 0 0.1 0 1.4 0 1.4s0 1.3 0 1.4c0.6 0 1.1 0 1.8 0.1h0c2.2 0.2 3.9 1.2 5.6 5.8 0.4 1.1 14.7 37.4 15.1 38.5 1.1 0 10.8 0 12.1 0 0-0.1 14.1-36.2 15.1-38.7 1.7-4.4 3.6-5.4 5.8-5.6 0.4 0 1-0.1 1.5-0.1 0-0.1 0-2.7 0-2.8C296 0 271 0 270.9 0zM262.6 29.5l-1.4-0.5c-1.7-0.6-2.4-1-2.6-2.8 -0.1-0.4-0.1-1-0.1-1l0 0 0 0 0 0c0 0 0 0 0 0 0-0.1 0.4-0.5 0.6-0.8 1.1-1.4 2-1.4 3.8-1l1.5 0.3 0 0.1c0 1-0.2 2-0.5 3C263.6 27.7 263.3 28.5 262.6 29.5L262.6 29.5z"
     class="st0" />
  <path
     style="fill:#4d4d4d"
     id="path66"
     d="M321 26.1c0 4.6-1.7 6.6-5.4 6.6 -3.9 0-5.5-1.7-5.5-6 0-2.6 0-5.3 0.1-7.9l0.1-5.5 -0.3 0h-2.2l-0.1 5.5c0 2.6-0.1 5.3-0.1 7.9 0 5.5 2.4 8 7.7 8 5.5 0 7.9-2.7 8-8.8l0.1-12.6h-2.3L321 26.1z"
     class="st1" />
  <path
     style="fill:#4d4d4d"
     id="path68"
     d="M349.9 19.5c0 2.8-0.1 5.7-0.1 8.5 0 0 0 0 0 0 0 0.9 0 1.9 0.1 2.8 -0.6-1-1.2-2-2-3.1L338 13l-0.2 0.1 -2.3 0.7 -0.2 20.6h2.3l0-0.3c0-0.1 0.1-9.8 0.1-14.6 0-0.9 0-1.8 0-2.7 0.6 1.1 1.3 2.1 2 3.1l10 14.8 2.4-0.7 0.2-20.7H350L349.9 19.5z"
     class="st1" />
  <polygon
     style="fill:#4d4d4d"
     id="polygon70"
     points="364.7 13.3 364.6 34.4 367 34.4 367.2 13.3 366.9 13.3 "
     class="st1" />
  <path
     style="fill:#4d4d4d"
     id="path72"
     d="M393.7 13.2l-6.5 16.3c-0.2 0.6-0.4 1.2-0.6 1.7 -0.2-0.6-0.4-1.2-0.6-1.7 0 0-6.4-16.6-6.4-16.6l-2.4 0.8 8.1 20.7h2.2l8.5-20.6 -2.2-0.8L393.7 13.2z"
     class="st1" />
  <path
     style="fill:#4d4d4d"
     id="path74"
     d="M406 13.3l-0.2 21h11.5v-2.1c0 0-8.5 0-9 0 0-0.5 0-7.1 0.1-7.6 0.5 0 8.9 0 8.9 0v-2.1c0 0-8.4 0-8.9 0 0-0.5 0-6.6 0.1-7 0.5 0 8.9 0 8.9 0v-2.1h-0.3H406z"
     class="st1" />
  <path
     style="fill:#4d4d4d"
     id="path76"
     d="M460 15c1.7 0 2.9 0.3 4.4 1.1l0.2 0.1 1.2-1.9 -0.2-0.1c-1.7-0.9-3.3-1.2-5.7-1.2 -3.1 0-6.2 1.9-6.2 5.5 0 3.7 2.7 4.9 5.2 6.1 2.1 1 4.2 2 4.2 4.4 0 2.2-1.6 3.6-4.1 3.6 -1.7 0-3.4-0.4-4.7-1.2l-0.2-0.1 -1.2 1.9 0.2 0.1c1.3 0.9 4 1.4 5.8 1.4 4.1 0 6.8-2.3 6.8-5.9 0-3.8-2.9-5.1-5.4-6.3 -2.1-1-3.9-1.9-3.9-3.9C456.3 16.5 457.8 15 460 15z"
     class="st1" />
  <polygon
     style="fill:#4d4d4d"
     id="polygon78"
     points="477.8 13.3 477.6 34.4 480 34.4 480.2 13.3 479.9 13.3 "
     class="st1" />
  <path
     style="fill:#4d4d4d"
     id="path80"
     d="M491.2 13.3v2.2c0 0 6 0 6.5 0 0 0.5-0.1 18.9-0.1 18.9h2.4c0 0 0.1-18.4 0.1-18.9 0.5 0 6.5 0 6.5 0v-2.2h-0.3H491.2z"
     class="st1" />
  <path
     style="fill:#4d4d4d"
     id="path82"
     d="M529.1 12.9l-5.2 7.3c-0.4 0.6-1.1 1.7-1.5 2.2 -0.3-0.5-0.8-1.3-1.3-2 0 0-5.2-7.6-5.2-7.6l-0.2 0.1 -1.9 1c0 0 7.3 10.6 7.3 10.8 0 0.2-0.1 9.6-0.1 9.6h2.4c0 0 0.1-9.7 0.1-9.9 0.1-0.1 7.6-10.5 7.6-10.5L529.1 12.9z"
     class="st1" />
  <path
     style="fill:#4d4d4d"
     id="path84"
     d="M438.4 25.6L438.4 25.6c-0.4-0.5-0.7-0.8-1.1-1.1 2.6-0.6 5.2-2.8 5.2-5.8 0-3.6-2.4-5.6-6.9-5.6 -1.5 0-2.9 0.1-4.4 0.1l-1.4 0.1 0 0.2 -0.2 20.8h2.4c0 0 0.1-8.9 0.1-9.4 0.4 0 1.3 0 1.3 0 0 0 0 0 0 0 1 0 1.8 0.3 2.3 1 0.4 0.5 6.1 8.5 6.2 8.6l0.1 0.2 2.2-1 -0.2-0.3C444.1 33.3 438.6 25.9 438.4 25.6zM440 18.9c0 2.9-2.5 4-4.7 4.1 0 0-1.5 0-1.5 0s-1.3 0-1.7 0c0-0.5 0.1-7.3 0.1-7.8 1.1-0.1 2.2-0.1 3.4-0.1C438.5 15.1 440 16.4 440 18.9zM433.4 25L433.4 25C433.4 25 433.4 25 433.4 25z"
     class="st1" />
  <path
     style="fill:#4d4d4d"
     id="path86"
     d="M21.5 13.4l-1.1 0 -0.3 0c0 0-0.1 0-0.1 0 -0.4 0-0.9 0.1-1.3 0.1 -0.6 0-1.2 0-1.8-0.1l-0.1 0c-0.7 0-1.1-0.1-1.6-0.1H15v1.4h0.8c1.4 0 1.6 0.3 1.6 0.7 0 0.3-0.1 0.8-0.4 1.6 -0.2 0.4-3.8 9.6-4.6 11.8 -0.9-2.3-4.8-12.2-5-12.6 -0.2-0.4-0.2-0.8-0.2-0.9 0-0.2 0.3-0.6 1.3-0.6h0.9v-1.4H9.2l-1.3 0 -0.4 0c0 0-0.4 0-0.4 0 -0.8 0-1.6 0.1-2.3 0.1 -0.8 0-1.5 0-2.3-0.1 -0.7 0-1.5-0.1-2.3-0.1H0v1.4h0.5c1.1 0 1.7 0.2 2.2 1.5 0 0 7.7 18.6 7.7 18.6h1.4l0.1-0.1c0.2-0.5 1.2-2.8 3.1-7.4 1.5-3.7 4.7-11.5 4.9-11.8 0.4-0.8 0.9-0.9 1.4-0.9h0.5v-1.4L21.5 13.4 21.5 13.4 21.5 13.4z"
     class="st1" />
  <path
     style="fill:#4d4d4d"
     id="path88"
     d="M40.8 32.1c-0.3-0.7-0.6-1.6-0.9-2.4l-0.2-0.6c0 0 0 0 0 0.1 0-0.1-0.4-1.2-5.3-15 0 0-0.3-0.7-0.3-0.7 -0.1-0.2-0.2-0.2-0.4-0.2l-0.1 0 -0.1 0c0 0-0.3 0-0.3 0l-0.7 0.1c0 0 0 0 0 0 -0.4 0-0.7 0-1.4 0h-0.2l0 0.2c-0.2 0.7-0.6 1.8-1 2.8l-0.2 0.4c0 0-0.4 1.1-0.4 1.1 0 0-4.7 13.6-4.7 13.6 -0.4 1.1-1.3 1.8-2.3 1.8h-0.4v1.4l0.3 0c0 0 0.4 0 0.4 0 0.9 0 1.9-0.1 2.8-0.1 1 0 2.1 0 3.1 0.1 0 0 0.5 0 0.5 0 0 0 0.3 0 0.3 0v-1.4h-0.6c-0.6 0-2-0.1-2-0.8 0-0.3 0.2-0.8 0.3-1.3l0.3-0.9c0 0 0.7-2.3 0.9-2.9 0.3 0 6.1 0 6.3 0 0.1 0.3 1.1 3.3 1.1 3.3 0.3 0.8 0.6 1.7 0.6 2 0 0.6-1.1 0.6-1.4 0.6H34v1.4l0.7 0c1.2 0 2.5-0.1 3.8-0.1 1.2 0 2.4 0 3.6 0.1 0 0 0.4 0 0.4 0l0.3 0v-1.4h-0.4C41.6 33.1 41.1 32.8 40.8 32.1zM33.6 25c-0.5 0-4.4 0-4.8 0 0.4-1.2 1.9-5.7 2.4-7.4C31.4 18.2 33.4 24.5 33.6 25z"
     class="st1" />
  <path
     style="fill:#4d4d4d"
     id="path90"
     d="M68.6 13.4l-0.2 0c-0.6 0-1.2 0.1-1.8 0.1 -0.7 0-1.4 0-2.1-0.1 -0.6 0-1.4-0.1-2.1-0.1h-0.2v1.4H63c0.8 0 2.2 0.3 2.2 2.5 0 0.1 0.1 8.3 0.1 10.5 -2.1-2.3-12.7-14.3-12.8-14.4l-0.1-0.1h-0.1c-0.5 0-0.9 0-1.3 0.1 0 0-0.2 0-0.2 0l-1.1 0 -1.4 0 -0.2 0c-0.5 0-1 0-1.6 0h-0.3l0 1.3 0.6 0c0.6 0 1.1 0.2 1.5 0.7 0.5 0.5 0.7 1.1 0.7 1.8l-0.1 12.4c0 2.2-0.4 3.5-2.2 3.5l-0.7 0v1.3h0.3c0.7 0 1.3 0 1.9 0l0.1 0c0.8 0 1.4-0.1 2-0.1 0.5 0 1.1 0 1.9 0.1 0 0 0 0 0 0l1.9 0h0.3v-1.4h-0.8c-1.9 0-2.4-0.7-2.4-3.2 0 0-0.1-9.2-0.1-11.5C51.9 19.1 66 34.9 66 34.9h1.5l0-0.3c-0.2-1-0.2-2-0.2-2.9l0.1-13.4c0-3.5 1.3-3.5 2.2-3.5 0 0 0.7 0 0.7 0v-1.3h-0.2L68.6 13.4z"
     class="st1" />
  <path
     style="fill:#4d4d4d"
     id="path92"
     d="M93.9 16.2L93.9 16.2c-2.1-1.9-5.2-2.9-8.8-2.9l-1.8 0 -0.1 0c-0.9 0-1.8 0.1-2.8 0.1 -1.1 0-2.2 0-3.2-0.1 0 0-0.6 0-0.6 0l-1 0h-0.3v1.4h0.7c1.2 0 1.9 0.2 1.9 1.4v15.5c0 1.3-0.8 1.5-1.8 1.5l-0.7 0v1.3h0.2l1.3 0c0 0 0.3 0 0.3 0 0.9 0 2-0.1 3-0.1 2.4 0 4.7 0.1 5.4 0.1 2.9 0.2 5.7-0.8 7.9-2.9 2.1-2 3.4-4.8 3.4-7.8C97.1 20.7 96 18.1 93.9 16.2zM92.5 24.4c0 2.3-0.7 4.3-1.9 5.8 -1.3 1.6-3.2 2.4-5.5 2.4 -2 0-2.8-0.2-2.8-2.1 0 0 0-14.9 0-15.3 0.1 0 0.2 0 0.2 0 0.5-0.1 1-0.1 1.5-0.1 2.7 0 4.6 0.6 5.9 1.8C91.7 18.4 92.5 20.9 92.5 24.4z"
     class="st1" />
  <path
     style="fill:#4d4d4d"
     id="path94"
     d="M117.8 29.4c-0.4 1.6-0.9 2.4-1.7 2.8 -0.8 0.4-1.9 0.4-3.6 0.4h-0.1c-2.1 0-3.4-0.1-3.4-1.7 0 0 0-6.1 0-6.5 0.4 0 3.4 0 3.4 0 1.8 0 1.9 0.7 2.1 2.5 0 0 0 0.3 0 0.3l1.3-0.3 0-0.2c-0.1-1.2-0.1-2.1-0.1-3.2 0-1.1 0-2 0.1-3.1l0-0.3 -1.3 0 0 0.2c-0.2 1.6-0.7 2-2.2 2 0 0-3 0-3.4 0 0-0.4 0-6.7 0-7.1 0.4 0 3.9 0 3.9 0 2.9 0 3.2 1 3.3 2.8 0 0 0 0.3 0 0.3l1.3-0.3 0-0.2c-0.1-1.2 0-2.7 0.1-3.9l0-0.7h-0.2 0c-0.9 0-2.1 0-3.4 0.1l-0.3 0c-1.3 0-2.7 0.1-3.9 0.1 -1.4 0-3 0-4.2-0.1 -1.4 0-2.4-0.1-3.1-0.1h-0.3v1.4h0.7c1.2 0 1.9 0.2 1.9 1.4v15.5c0 1.3-0.6 1.5-1.7 1.5h-0.7v1.3h0.2l3 0c1.5 0 3.2-0.1 4.6-0.1 1.4 0 3.1 0 4.5 0.1 0 0 0.3 0 0.3 0l3 0h0.2l0-0.2c0 0 0.2-1.6 0.2-1.6 0.1-1 0.3-1.9 0.5-3 0 0 0.1-0.2 0.1-0.2l-1.3-0.3L117.8 29.4z"
     class="st1" />
  <path
     style="fill:#4d4d4d"
     id="path96"
     d="M162.2 22.9c2.1-0.6 4.1-1.9 4.1-4.7 0-1.5-0.5-2.6-1.6-3.5 -1.2-0.9-3-1.4-5.4-1.4 -0.6 0-1.3 0-2.1 0.1l-0.1 0c-0.8 0-1.6 0.1-2.5 0.1 -0.8 0-1.6 0-2.4-0.1l-0.1 0c-0.9 0-1.5-0.1-2-0.1h-0.2v1.4h0.7c1.2 0 1.9 0.2 1.9 1.4v15.5c0 1.2-0.7 1.4-1.9 1.4h-0.7v1.4h0.2l2 0 0.2 0c1 0 2.1-0.1 3.1-0.1 1 0 2 0 2.9 0.1 0 0 2.3 0 2.3 0 1.9 0 3.7-0.6 5.1-1.8 1.4-1.2 2.1-2.7 2.1-4.3 0-1.4-0.5-2.7-1.5-3.7C165.1 23.8 163.7 23.2 162.2 22.9zM157.8 22.3c0 0-0.8 0-1.2 0 0-0.4 0-6.8 0-7.2 0.3 0 1.5 0 1.5 0 1.8 0 3.7 0.4 3.7 3.7C161.8 21.2 160.5 22.3 157.8 22.3zM163.1 28.5c0 2.5-1.7 4.2-4.1 4.2 -2.1 0-2.4-0.3-2.4-2.3 0 0 0-6.1 0-6.5 0.3 0 1.6 0 1.6 0 1.5 0 2.7 0.4 3.5 1.1C162.7 25.9 163.1 27 163.1 28.5z"
     class="st1" />
  <path
     style="fill:#4d4d4d"
     id="path98"
     d="M182.8 13.4l-1.7 0 -0.5 0c0 0-0.2 0-0.2 0 -0.7 0-1.5 0.1-2.2 0.1 -0.7 0-1.5 0-2.3-0.1l-0.2 0c-0.9 0-1.5-0.1-2-0.1h-0.3v1.4h0.7c1.2 0 1.9 0.2 1.9 1.4v15.5c0 1.2-0.7 1.4-1.9 1.4h-0.7v1.4h0.3l1.9 0c0.7 0 1.6-0.1 2.4-0.1 0.7 0 1.6 0 2.3 0.1 0 0 0.1 0 0.1 0l2.2 0h0.3v-1.4h-0.7c-1.2 0-1.9-0.2-1.9-1.4V16.2c0-1.2 0.7-1.4 1.9-1.4h0.7v-1.4L182.8 13.4 182.8 13.4 182.8 13.4z"
     class="st1" />
  <path
     style="fill:#4d4d4d"
     id="path100"
     d="M205.3 29.2c-0.2 0.7-0.4 1.2-0.8 1.8 -0.5 0.8-1.5 1.3-2.6 1.4 -1.2 0.1-2.2 0.2-3.5 0.1 -1.1-0.1-1.5-0.6-1.5-1.4v-15c0-1.3 0.7-1.3 1.8-1.3h1v-1.4h-0.2 0c-0.7 0-1.5 0-2.2 0.1l-0.1 0c-0.7 0-1.5 0.1-2.2 0.1 -0.8 0-1.6 0-2.3-0.1 -0.7 0-1.5-0.1-2.3-0.1H190v1.4h0.7c1.2 0 2 0.2 2 1.4v15.2c0 1.6-0.9 1.7-2 1.7H190v1.4h0.3l3.8 0 0.1 0c1.5 0 2.8-0.1 3.9-0.1 1.1 0 2.3 0 3.7 0.1 0 0 0.1 0 0.1 0 1.2 0 2.4 0 3.6 0h0.2l0-0.2c0.2-1.1 0.4-2.1 0.6-3.2l0.4-2h-1.3L205.3 29.2z"
     class="st1" />
  <path
     style="fill:#4d4d4d"
     id="path102"
     d="M142.7 31.5c0 0-3.8-5.2-3.8-5.2 -0.6-0.8-1.2-1.4-1.7-1.7 2-0.9 4.2-2.9 4.2-5.7 0-2-0.8-3.5-2.2-4.4 -1.2-0.7-2.9-1.1-5-1.1l-1.8 0 -0.5 0c0 0-0.1 0-0.1 0 -0.8 0-1.5 0.1-2.4 0.1 -1 0-2 0-3-0.1 0 0-0.3 0-0.3 0l-1.3 0h-0.2v1.4h0.8c1 0 1.8 0.1 1.8 2v15c0 1.3-1.3 1.4-1.7 1.4l-0.8 0v1.3h0.3c0.7 0 1.4 0 2.1-0.1 0.6 0 1.3-0.1 2-0.1 0.7 0 1.5 0 2.5 0.1 0 0 0.1 0 0.1 0l2.5 0h0.3v-1.4h-0.8c-1.3 0-2.2-0.1-2.2-2.1 0 0 0-5.3 0-5.6 0.3 0 1.3 0 1.3 0 0.4 0 0.7 0.1 1 0.6 0.7 1.1 2.4 3.6 4.9 6.9 1.2 1.6 2.7 1.6 3.8 1.6l3.3 0v-1.3l-0.2 0C144.2 33 143.7 32.9 142.7 31.5zM137 19.1c0 1.6-0.4 2.7-1.1 3.5 -0.7 0.7-1.7 1-3.1 1 0 0-1-0.1-1.2-0.1 0-0.4 0-8 0-8.3 0.1 0 0.2 0 0.2 0 0.3 0 0.7-0.1 1.3-0.1C135.5 15.1 137 16.6 137 19.1z"
     class="st1" />
  <path
     style="fill:#4d4d4d"
     id="path104"
     d="M227.2 13.3l-0.7 0.1c0 0-0.1 0-0.1 0 0 0-1.3 0-1.3 0h-14.2c-0.7 0-1.1 0-1.6-0.1 0 0-0.1 0-0.1 0 0 0 0 0 0 0 0 0-1.1-0.1-1.1-0.1v0.2 0.1c0 0.7 0 1-0.1 1.8 0 0 0 0.2 0 0.2 0 0 0 0.3 0 0.3l-0.3 2.2 0 0.2h1.4l0.1-0.2c0.4-2.2 0.5-2.5 2.5-2.5 0 0 3.6 0 4 0 0 0.4 0 15.4 0 15.4 0 2.1-0.7 2.2-2.2 2.2h-0.8v1.4h0.2l2 0c0.9 0 2-0.1 3-0.1 0.8 0 1.8 0 2.7 0.1l0.1 0 2 0h0.2v-1.4H222c-1.3 0-2.2-0.2-2.2-2.3 0 0 0-14.9 0-15.3 0.4 0 4.1 0 4.1 0 1.8 0 1.9 1.6 2 2.5 0 0 0 0.3 0 0.3l1.4-0.3v-0.2l0-2.4c0-0.8 0.1-1.5 0.1-1.8 0 0 0-0.3 0-0.3L227.2 13.3 227.2 13.3z"
     class="st1" />
</svg>
